<?xml version="1.0" standalone="no"?>
<!DOCTYPE svg PUBLIC "-//W3C//DTD SVG 20010904//EN"
 "http://www.w3.org/TR/2001/REC-SVG-20010904/DTD/svg10.dtd">
<svg version="1.0" xmlns="http://www.w3.org/2000/svg"
 width="3320.000000pt" height="3320.000000pt" viewBox="0 0 3320.000000 3320.000000"
 preserveAspectRatio="xMidYMid meet">
<metadata>
Created by potrace 1.11, written by Peter Selinger 2001-2013
</metadata>
<g transform="translate(0.000000,3320.000000) scale(0.100000,-0.100000)"
fill="#000000" stroke="none">
<path d="M15469 33166 c-38 -38 -115 -208 -134 -296 -2 -8 -10 -44 -19 -80
-34 -147 -41 -213 -41 -400 0 -168 5 -216 29 -305 80 -291 279 -508 736 -801
212 -137 267 -171 303 -193 83 -50 58 -40 -323 135 -463 213 -714 418 -919
752 -100 164 -241 492 -241 563 0 112 -90 2 -148 -181 -11 -36 -23 -77 -26
-90 -2 -14 -9 -45 -15 -70 -17 -74 -23 -139 -26 -272 -6 -255 56 -434 211
-608 86 -97 197 -186 394 -317 96 -64 186 -123 200 -133 14 -9 32 -19 40 -23
8 -3 91 -56 183 -117 135 -88 176 -110 205 -111 l37 0 -30 -14 c-16 -8 -92
-42 -169 -75 -132 -58 -493 -235 -614 -301 -135 -74 -172 -95 -252 -142 -110
-65 -267 -169 -305 -202 -16 -15 -25 -24 -18 -20 7 3 28 6 48 7 29 1 43 -6 75
-37 22 -22 40 -46 40 -55 -1 -33 -58 -123 -115 -180 -32 -33 -125 -106 -205
-162 -144 -102 -183 -132 -246 -197 -29 -29 -32 -36 -19 -45 14 -10 13 -16 -5
-51 -11 -21 -20 -40 -20 -41 0 -1 39 7 88 18 48 11 94 21 102 23 8 2 66 15
129 29 62 14 116 26 119 26 3 0 -7 -14 -23 -30 -46 -48 -180 -133 -300 -192
-152 -73 -178 -84 -339 -138 -77 -27 -148 -51 -156 -54 -12 -5 -15 -33 -14
-168 l0 -161 40 -35 c21 -19 49 -41 61 -49 23 -16 0 -25 358 147 125 60 194
93 270 127 6 2 1 -3 -10 -11 -21 -18 -103 -88 -175 -150 -66 -58 -219 -213
-265 -269 -185 -225 -276 -464 -269 -710 l2 -96 -56 -16 c-85 -23 -645 -207
-657 -215 -5 -4 -28 -13 -50 -20 -84 -26 -509 -201 -680 -280 -113 -52 -521
-254 -595 -296 -47 -26 -103 -57 -125 -69 -22 -12 -67 -37 -100 -55 -33 -18
-67 -39 -76 -46 -8 -8 -19 -14 -22 -14 -4 0 -55 -29 -113 -65 -59 -36 -110
-65 -114 -65 -9 0 -23 19 -118 165 -43 66 -126 192 -183 280 -451 686 -727
1120 -1015 1599 -79 131 -144 240 -144 243 0 2 -13 24 -30 48 -16 24 -30 46
-30 48 0 3 -38 71 -85 152 -47 80 -85 148 -85 151 0 2 -11 21 -23 42 -13 20
-43 73 -67 117 -83 153 -95 169 -141 195 -40 23 -54 25 -159 24 -86 0 -137 -6
-200 -23 -358 -95 -798 -356 -875 -518 -23 -48 -22 -65 10 -246 6 -36 23 -134
30 -177 10 -57 75 -361 91 -420 8 -30 26 -95 39 -145 13 -49 40 -148 60 -220
21 -71 41 -146 45 -165 4 -19 29 -116 55 -215 26 -99 48 -189 51 -200 2 -11 8
-38 13 -60 19 -76 62 -257 66 -273 2 -9 18 -73 35 -142 18 -69 34 -136 36
-149 3 -14 30 -122 60 -240 30 -119 57 -224 59 -235 3 -10 14 -56 25 -101 11
-45 23 -93 25 -106 8 -39 55 -262 65 -304 10 -45 56 -269 75 -365 5 -26 11
-58 19 -98 3 -13 7 -31 10 -40 3 -9 8 -28 10 -42 3 -14 10 -45 15 -70 9 -44
67 -279 77 -312 3 -9 -6 -27 -18 -41 -33 -35 -130 -146 -163 -185 -21 -25 -30
-30 -35 -20 -7 12 -87 316 -96 363 -5 24 -12 59 -18 83 -10 39 -39 167 -76
342 -21 102 -46 218 -54 257 -9 40 -18 85 -21 100 -3 16 -7 39 -10 53 -3 14
-9 48 -15 75 -5 28 -21 104 -35 170 -14 66 -29 140 -35 165 -16 82 -89 403
-120 530 -61 252 -112 466 -120 507 -5 23 -17 71 -26 105 -9 35 -18 74 -21 88
-6 35 -92 397 -103 440 -6 19 -35 141 -65 270 -30 129 -73 312 -96 405 -22 94
-43 181 -45 195 -3 14 -17 74 -32 133 l-27 109 -125 -64 c-219 -113 -395 -226
-665 -428 -135 -101 -542 -432 -565 -459 -3 -4 -41 -38 -85 -76 -44 -39 -82
-73 -85 -76 -3 -3 -48 -43 -100 -89 -52 -47 -100 -89 -106 -95 -12 -12 -186
-171 -218 -200 -155 -140 -205 -186 -240 -218 l-41 -39 60 33 60 33 -55 -64
c-30 -36 -100 -117 -155 -180 -268 -306 -423 -508 -510 -665 -15 -27 -38 -69
-51 -91 l-24 -41 30 -13 c20 -8 58 -11 117 -7 158 10 248 33 546 139 205 73
232 86 275 125 47 45 160 144 196 173 26 20 25 20 -102 -175 -58 -88 -154
-245 -214 -350 -181 -315 -266 -500 -217 -470 5 4 17 8 27 10 105 20 479 125
585 164 251 92 289 118 567 380 109 103 196 180 264 231 18 14 -106 -154 -402
-541 -232 -305 -397 -574 -491 -804 -29 -69 -46 -110 -58 -136 -2 -4 39 -8 90
-8 50 -1 110 -4 132 -6 22 -2 67 -7 99 -10 33 -3 74 -8 90 -10 228 -29 424
-37 561 -22 90 10 257 54 344 92 85 36 387 187 480 239 l58 33 -54 -123 c-30
-69 -88 -189 -129 -268 -41 -79 -74 -150 -74 -157 0 -21 42 -66 67 -74 29 -8
110 75 245 250 55 72 134 162 175 202 73 70 253 206 262 197 10 -10 -64 -96
-178 -206 -136 -130 -183 -186 -220 -263 -34 -72 -32 -66 -145 -365 -118 -313
-116 -285 -26 -377 112 -114 264 -174 442 -174 l78 0 -51 -72 c-28 -40 -67
-95 -87 -123 -35 -50 -38 -52 -101 -62 -36 -5 -106 -9 -156 -7 -106 3 -174 26
-242 81 -60 49 -173 162 -208 208 -26 34 -27 41 -21 102 7 72 31 150 76 248
16 36 36 81 44 100 l15 35 -64 21 c-119 40 -141 76 -131 217 4 47 9 89 12 94
9 15 -10 10 -67 -15 -233 -102 -423 -150 -594 -149 -86 0 -319 12 -350 17 -16
3 -43 8 -60 10 -133 20 -285 65 -375 112 -105 56 -145 100 -137 152 5 27 54
159 67 177 29 42 250 498 250 517 0 5 -200 -79 -240 -101 -23 -12 -206 -68
-280 -85 -41 -9 -108 -14 -183 -13 -143 2 -148 6 -141 100 8 100 49 216 144
407 50 98 90 181 90 184 0 5 -36 -6 -75 -23 -65 -30 -231 -85 -331 -110 -289
-73 -434 -30 -434 131 0 87 61 241 159 401 25 42 36 67 27 67 -18 0 -314 -302
-601 -614 -16 -18 -64 -70 -105 -116 -41 -46 -97 -109 -125 -140 -27 -30 -75
-84 -105 -119 -30 -36 -69 -80 -87 -100 -145 -164 -618 -746 -768 -945 -27
-37 -55 -72 -60 -79 -10 -11 -195 -259 -282 -377 -108 -148 -192 -270 -185
-270 13 0 245 207 508 456 24 22 191 184 370 360 327 320 389 380 546 529 100
96 275 256 338 311 25 21 47 41 50 44 3 3 21 19 40 35 l34 30 -29 -40 c-16
-22 -31 -42 -35 -45 -3 -3 -103 -128 -223 -278 -120 -150 -227 -283 -237 -295
-217 -260 -282 -335 -445 -516 -41 -46 -176 -190 -231 -245 -32 -33 -147 -140
-205 -191 -32 -28 -142 -124 -214 -186 -16 -15 -68 -59 -115 -99 -47 -39 -98
-84 -115 -98 -16 -15 -64 -56 -105 -91 -62 -53 -152 -133 -261 -231 -89 -81
-155 -152 -192 -208 -45 -69 -134 -206 -199 -309 -23 -37 -53 -112 -81 -203
-40 -129 -50 -180 -72 -360 -6 -49 -6 -340 0 -405 1 -22 6 -76 10 -120 4 -43
9 -88 11 -100 2 -11 11 -63 20 -115 14 -90 79 -353 90 -372 3 -5 24 6 47 24
71 56 392 383 515 525 257 298 2017 2071 2176 2193 17 13 -110 -157 -183 -246
-14 -17 -33 -40 -41 -50 -34 -44 -225 -279 -230 -284 -3 -3 -17 -21 -32 -40
-14 -19 -34 -44 -44 -55 -11 -11 -41 -47 -69 -80 -27 -33 -52 -62 -55 -65 -3
-3 -24 -27 -45 -55 -22 -27 -43 -52 -46 -55 -3 -3 -66 -75 -139 -160 -74 -85
-150 -173 -170 -195 -20 -22 -63 -69 -96 -105 -119 -132 -141 -156 -235 -255
-53 -55 -116 -120 -139 -145 -23 -25 -205 -209 -405 -410 l-363 -365 -7 -65
c-4 -36 -10 -76 -12 -90 -8 -53 -10 -338 -2 -400 4 -36 11 -99 15 -140 3 -41
8 -84 10 -95 9 -46 15 -82 19 -115 13 -118 36 -242 47 -260 59 -94 290 -62
578 79 132 65 165 99 387 411 142 198 563 730 769 970 57 67 239 276 244 280
3 3 46 50 95 105 205 228 534 558 786 789 129 118 145 133 224 201 81 69 113
97 144 125 9 8 37 31 61 50 25 19 47 37 50 41 24 29 332 250 450 324 l45 28
-25 -29 c-36 -40 -49 -54 -201 -215 -75 -79 -155 -164 -179 -189 -23 -25 -101
-108 -175 -185 -73 -77 -147 -156 -165 -175 -18 -19 -94 -100 -170 -180 -75
-80 -154 -163 -175 -185 -20 -22 -95 -101 -165 -175 -70 -74 -145 -153 -165
-175 -21 -22 -63 -67 -95 -100 -49 -52 -135 -149 -220 -249 -14 -17 -41 -48
-61 -70 -19 -23 -80 -95 -135 -161 -54 -66 -101 -122 -104 -125 -3 -3 -37 -43
-75 -90 -38 -47 -72 -87 -75 -90 -3 -3 -50 -59 -105 -125 -55 -66 -112 -133
-127 -150 -29 -32 -40 -45 -108 -126 -95 -112 -219 -247 -320 -346 l-104 -104
-5 -152 c-3 -84 -5 -235 -5 -337 -1 -207 8 -256 55 -302 27 -27 33 -29 80 -23
29 4 61 9 73 11 11 2 50 6 86 10 36 3 69 9 74 12 5 3 71 7 145 8 75 2 143 3
152 3 26 1 59 37 186 196 66 83 126 157 134 165 8 8 27 33 43 55 16 22 147
157 291 300 143 143 306 310 362 370 55 61 112 124 127 140 26 27 197 212 256
276 218 234 371 420 726 879 27 36 103 133 168 215 65 83 129 164 142 180 13
17 117 149 231 295 114 146 269 344 343 439 74 96 145 186 158 200 51 59 -225
-374 -537 -842 -383 -576 -517 -773 -670 -987 -230 -322 -409 -547 -620 -779
-107 -118 -120 -132 -238 -258 -58 -62 -114 -122 -124 -135 -11 -12 -46 -49
-77 -83 -31 -33 -94 -101 -138 -150 -45 -50 -93 -102 -105 -116 -13 -14 -41
-45 -62 -70 -79 -90 -215 -236 -336 -358 -148 -150 -241 -256 -241 -275 0 -15
88 -135 190 -261 31 -38 75 -97 98 -131 55 -83 133 -150 217 -190 131 -62 122
-65 265 83 159 164 210 219 295 318 38 44 74 85 80 91 5 6 28 32 50 59 22 26
46 54 53 61 7 8 98 116 202 241 105 126 196 235 203 243 7 8 50 60 95 115 44
55 129 159 187 230 58 72 112 137 118 145 196 242 434 525 503 598 64 67 70
64 29 -13 -55 -102 -89 -161 -99 -175 -6 -8 -20 -31 -30 -50 -34 -61 -227
-363 -270 -420 -22 -30 -89 -122 -148 -205 -59 -82 -113 -158 -120 -167 -7 -9
-19 -25 -26 -35 -7 -10 -71 -99 -142 -198 -71 -99 -189 -263 -262 -365 -153
-214 -127 -180 -264 -345 -59 -71 -147 -170 -195 -220 -163 -167 -173 -183
-142 -217 64 -71 229 -90 499 -58 151 18 156 19 251 67 68 34 208 133 292 207
132 116 391 371 548 540 40 42 73 74 73 69 0 -10 -18 -171 -25 -231 -3 -25
-15 -53 -27 -65 -30 -32 -115 -148 -182 -250 -62 -94 -89 -153 -131 -290 l-28
-88 24 -52 c42 -91 126 -187 271 -309 l27 -23 6 -220 c4 -121 8 -242 10 -270
2 -27 7 -93 10 -145 3 -52 8 -113 10 -135 2 -22 7 -71 10 -110 7 -70 9 -89 19
-177 3 -27 8 -68 11 -93 3 -25 8 -66 11 -92 6 -53 51 -350 59 -398 49 -272 62
-336 117 -575 66 -291 155 -609 253 -904 61 -187 137 -401 155 -441 5 -11 29
-72 54 -135 45 -117 126 -309 173 -410 14 -30 48 -104 76 -165 50 -109 193
-392 237 -470 12 -22 38 -69 57 -105 18 -36 38 -72 43 -80 5 -8 52 -87 103
-175 242 -413 478 -757 805 -1175 91 -117 361 -433 482 -565 65 -71 534 -540
605 -605 33 -31 98 -89 145 -130 47 -41 87 -77 90 -80 8 -9 238 -200 320 -266
312 -252 774 -571 1153 -798 98 -58 180 -106 182 -106 2 0 30 -15 62 -34 229
-133 638 -334 958 -470 99 -42 197 -85 217 -94 l37 -17 -152 -156 c-124 -128
-218 -227 -362 -383 -6 -6 -39 -45 -75 -86 -36 -41 -68 -77 -71 -80 -13 -11
-158 -190 -216 -265 -72 -96 -136 -195 -130 -201 3 -3 46 2 96 11 100 17 308
23 411 12 79 -9 265 -54 302 -73 15 -8 31 -14 37 -14 12 0 93 111 160 218 28
45 60 92 70 105 25 28 550 674 557 685 2 3 175 -47 182 -53 1 -1 -51 -85 -116
-186 -385 -596 -739 -1246 -690 -1264 7 -2 72 -25 143 -51 427 -152 509 -175
700 -198 22 -3 64 -8 93 -11 l52 -7 15 35 c24 57 64 216 101 402 37 188 133
436 284 735 79 157 162 320 173 336 7 11 21 10 114 -11 20 -5 20 -7 8 -32 -96
-195 -245 -556 -323 -783 -99 -287 -195 -677 -226 -920 -3 -25 -8 -54 -10 -65
-2 -11 -7 -49 -11 -85 -3 -36 -8 -78 -10 -95 -2 -16 -6 -80 -10 -141 -6 -90
-5 -111 6 -111 8 0 50 -7 94 -16 44 -9 94 -19 110 -22 17 -2 80 -14 140 -26
181 -34 195 -35 195 -11 0 57 88 379 169 617 28 83 53 155 55 160 1 6 6 17 9
25 3 8 29 78 57 155 51 137 152 400 170 440 13 28 158 389 183 453 11 29 22
51 24 48 2 -2 -23 -84 -57 -182 -34 -99 -63 -183 -64 -189 -2 -5 -6 -17 -9
-25 -82 -196 -248 -760 -283 -960 -2 -8 -6 -31 -10 -50 -8 -37 -8 -41 -19
-130 -3 -30 -8 -62 -10 -70 -5 -18 -13 -114 -20 -230 -14 -219 3 -882 22 -901
12 -12 100 -23 183 -23 98 0 167 22 270 85 104 64 188 102 258 119 28 6 52 15
53 18 0 4 2 36 3 72 4 78 17 257 21 279 2 9 6 45 10 81 4 36 8 72 10 80 4 21
13 86 21 140 3 24 7 47 9 50 1 3 6 28 9 55 4 28 16 91 26 140 11 50 21 101 24
115 2 14 18 84 34 155 30 127 75 355 86 425 26 177 36 254 41 305 3 33 8 71
10 85 5 35 15 187 20 300 l3 95 -55 18 c-118 38 -203 144 -264 331 -10 32 -19
61 -19 63 0 6 168 -6 191 -13 9 -2 30 -33 48 -68 17 -34 39 -70 50 -80 19 -17
20 -16 31 41 20 100 14 94 86 91 35 -1 69 -5 74 -8 5 -3 -3 -43 -19 -93 -31
-96 -33 -165 -7 -250 15 -50 14 -52 -41 -50 -27 1 -11 -13 30 -25 64 -21 149
-76 290 -190 148 -120 235 -182 254 -182 10 0 12 15 6 68 -13 136 -7 321 11
340 3 3 6 -51 7 -119 2 -233 19 -322 75 -388 46 -53 91 -63 201 -47 45 7 55
13 74 42 28 46 48 56 90 44 61 -18 114 -12 174 20 31 17 61 30 66 30 21 0 71
-47 100 -92 17 -26 37 -48 44 -48 13 0 85 77 85 90 0 3 14 16 31 29 l31 23 60
-23 61 -23 31 37 c21 25 47 42 79 52 l47 14 30 -65 c17 -36 37 -67 44 -70 22
-8 155 24 199 48 30 17 49 37 66 72 23 45 25 61 24 170 -1 67 -4 145 -7 175
-3 30 -4 52 -1 49 13 -13 46 -221 49 -310 1 -26 5 -22 176 166 168 183 256
257 345 288 51 18 48 20 -25 21 -12 0 -15 16 -16 81 -1 81 -11 140 -38 227
l-14 46 69 15 70 15 26 -49 c14 -26 29 -48 33 -48 3 0 20 28 36 62 16 34 36
62 44 64 8 1 55 11 103 23 49 11 93 21 99 21 6 0 7 -15 4 -38 -21 -138 -72
-256 -142 -326 -37 -37 -99 -76 -120 -76 -18 0 -16 -32 11 -190 55 -314 135
-617 252 -955 108 -310 228 -710 246 -822 3 -15 12 -64 22 -108 17 -82 21
-106 32 -188 3 -26 9 -49 12 -51 3 -2 33 -7 66 -10 78 -9 136 -26 259 -78 91
-38 110 -42 186 -42 95 -1 130 5 210 32 l55 19 -1 84 c-1 78 -7 190 -20 334
-14 166 -22 250 -29 295 -2 14 -7 48 -11 75 -3 28 -8 61 -9 75 -16 113 -79
378 -124 515 -79 246 -167 454 -354 835 -154 317 -199 412 -194 416 2 2 10 -8
18 -23 8 -15 44 -81 82 -146 37 -65 67 -121 67 -123 0 -1 13 -25 28 -51 16
-26 53 -93 82 -148 30 -55 73 -136 97 -180 56 -104 270 -532 305 -610 14 -33
35 -80 46 -105 45 -100 91 -220 117 -300 15 -47 29 -87 31 -89 3 -4 65 18 370
127 l160 57 -13 70 c-7 39 -16 86 -19 105 -3 19 -25 118 -50 220 -128 523
-344 1018 -691 1583 -36 59 -49 89 -41 92 7 3 43 15 80 29 l66 24 24 -37 c13
-20 76 -112 139 -206 258 -379 343 -539 439 -820 86 -251 136 -365 159 -365
27 0 174 38 214 55 21 8 67 29 103 45 35 17 67 30 69 30 3 0 50 22 104 49 92
46 124 63 276 148 33 19 88 48 122 65 l62 32 -26 50 c-52 104 -296 451 -460
656 -24 30 -50 62 -56 70 -111 141 -285 354 -376 459 -25 30 -47 57 -49 62 -3
7 141 79 158 79 8 0 15 -7 230 -209 74 -70 166 -156 204 -192 114 -105 159
-151 201 -204 69 -88 168 -185 187 -185 10 0 67 12 126 26 59 14 116 28 127
30 11 3 30 7 42 10 49 10 461 106 496 115 34 9 36 12 26 30 -11 22 -281 296
-364 370 -97 86 -302 257 -475 395 l-176 139 145 85 c543 319 994 638 1481
1049 69 58 127 108 130 111 3 4 32 30 65 60 359 319 684 657 1069 1110 180
212 465 597 651 880 169 257 236 368 396 646 66 116 300 575 361 709 315 688
545 1373 702 2090 33 149 97 489 110 580 3 22 7 49 10 60 2 11 7 45 11 75 4
30 9 62 10 70 3 15 12 92 21 165 2 22 6 56 9 75 6 44 14 119 20 190 3 30 7 78
10 105 5 47 8 92 20 295 5 80 13 286 15 358 0 19 5 32 13 32 24 0 80 49 116
103 59 86 82 112 146 160 113 84 235 229 275 326 11 28 9 42 -20 134 -18 56
-44 127 -59 157 -32 65 -185 287 -237 345 -20 22 -73 80 -118 129 -44 49 -89
98 -99 110 -10 11 -37 40 -59 64 -42 45 -53 72 -63 162 -4 30 -11 77 -16 104
-5 27 -9 51 -9 55 0 3 17 -12 36 -34 20 -22 122 -130 227 -239 640 -666 890
-865 1127 -896 142 -19 353 -24 422 -10 73 14 131 44 154 78 19 28 26 19 -143
192 -91 94 -218 238 -303 344 -8 10 -20 23 -25 30 -6 6 -66 88 -135 181 -68
94 -181 247 -250 340 -164 221 -321 434 -469 636 -31 42 -61 84 -68 95 -7 10
-28 42 -47 70 -40 60 -200 314 -229 364 -64 110 -99 184 -82 170 34 -28 132
-135 250 -275 28 -32 64 -75 81 -94 17 -20 93 -110 168 -201 76 -91 155 -185
176 -210 21 -25 100 -119 176 -210 127 -152 285 -339 338 -400 67 -78 222
-256 226 -260 3 -3 25 -28 50 -56 156 -175 222 -246 360 -387 178 -181 164
-176 294 -112 93 45 151 96 216 192 30 43 97 134 150 203 53 69 106 141 118
161 l22 36 -42 49 c-23 27 -131 139 -239 249 -109 110 -210 214 -226 231 -86
96 -185 204 -218 239 -125 133 -296 315 -330 350 -235 246 -310 327 -384 410
-30 33 -68 76 -85 95 -67 73 -255 312 -383 485 -72 99 -140 191 -151 205 -10
14 -61 86 -113 160 -175 250 -204 291 -473 685 -41 61 -125 182 -185 270 -60
88 -138 205 -172 260 -35 55 -98 153 -140 218 -43 64 -76 117 -75 117 2 0 57
-66 122 -147 65 -82 121 -150 124 -153 3 -3 21 -25 40 -50 19 -25 37 -47 40
-50 3 -3 30 -36 60 -75 30 -38 63 -79 72 -90 9 -11 213 -265 453 -565 240
-300 444 -554 453 -565 16 -19 78 -96 112 -139 40 -50 306 -341 431 -471 48
-49 97 -102 110 -116 178 -197 430 -453 569 -579 148 -135 237 -231 390 -419
19 -23 45 -55 58 -69 12 -15 48 -59 80 -99 31 -39 66 -77 77 -85 14 -9 58 -13
145 -14 112 -1 211 -8 269 -19 36 -7 155 -19 184 -18 17 0 37 11 51 28 47 55
58 189 41 490 -5 77 -9 174 -9 215 l-1 75 -136 135 c-75 74 -174 178 -220 230
-46 52 -88 99 -94 106 -5 6 -37 41 -70 79 -33 38 -69 79 -80 91 -11 12 -34 40
-52 61 -17 21 -40 47 -50 58 -10 11 -97 112 -193 225 -95 113 -181 212 -189
221 -9 9 -32 36 -51 59 -19 23 -42 50 -50 59 -9 9 -49 54 -90 101 -41 47 -105
117 -141 155 -37 39 -98 102 -136 142 -58 62 -296 307 -603 624 -117 120 -476
491 -583 603 -48 50 -122 126 -165 170 -87 89 -75 87 78 -12 148 -95 513 -379
655 -508 12 -11 54 -48 95 -84 41 -35 100 -87 130 -116 30 -28 91 -84 135
-125 100 -92 544 -537 605 -604 25 -27 72 -79 105 -116 93 -101 135 -148 200
-224 60 -70 111 -128 130 -149 29 -31 267 -320 354 -430 55 -68 107 -133 115
-143 8 -10 38 -47 66 -83 28 -36 56 -72 63 -80 7 -8 34 -44 60 -80 255 -346
275 -367 399 -429 290 -143 530 -175 592 -78 14 21 17 38 31 142 3 22 7 56 10
75 2 19 9 76 15 125 6 50 13 104 15 120 25 188 24 471 -4 618 -4 24 -7 50 -5
59 1 10 -131 146 -329 340 -181 177 -335 328 -341 334 -264 267 -480 494 -596
625 -36 40 -72 80 -80 89 -16 16 -201 226 -304 343 -32 37 -85 100 -119 140
-33 39 -74 88 -91 108 -17 19 -49 57 -71 84 -22 27 -54 65 -71 85 -17 19 -86
105 -155 190 -68 85 -126 157 -129 160 -3 3 -17 21 -30 40 l-23 35 43 -40 c71
-65 303 -282 395 -370 422 -402 1496 -1469 1715 -1705 329 -354 590 -610 621
-610 7 0 7 0 37 110 21 79 51 220 58 273 2 18 6 48 9 67 33 208 39 601 10 750
-2 14 -7 41 -9 60 -9 58 -14 78 -57 214 -43 139 -53 156 -236 432 -74 111
-113 159 -186 226 -93 86 -205 184 -282 248 -236 195 -580 486 -665 562 -110
99 -307 299 -470 478 -17 19 -44 49 -59 65 -78 86 -322 372 -473 556 -56 69
-150 184 -208 254 -126 153 -146 181 -100 140 40 -36 42 -37 110 -95 29 -25
62 -53 73 -63 27 -23 172 -154 207 -187 15 -14 76 -71 136 -126 60 -56 141
-133 181 -170 39 -38 138 -133 220 -211 81 -78 175 -168 209 -200 111 -107
319 -301 363 -340 25 -21 57 -49 71 -63 55 -52 193 -171 273 -234 l52 -41 -30
40 c-17 22 -35 46 -42 55 -6 8 -89 119 -184 245 -221 295 -629 812 -704 891
-5 6 -26 30 -45 54 -19 24 -40 48 -45 54 -6 6 -64 74 -130 151 -66 77 -136
158 -156 180 -20 22 -78 87 -130 145 -51 58 -112 125 -135 150 -23 25 -56 61
-74 80 -186 204 -642 668 -684 696 -35 22 -36 24 38 -101 163 -273 183 -438
61 -500 -64 -32 -226 -26 -377 14 -140 37 -305 93 -380 129 -10 4 0 -23 30
-78 169 -316 195 -381 208 -527 l6 -72 -43 -11 c-65 -18 -256 -7 -352 19 -123
34 -219 68 -340 121 -62 26 -113 47 -115 46 -1 -2 8 -25 22 -52 13 -27 60
-123 104 -214 44 -91 98 -197 119 -235 75 -136 95 -208 68 -249 -55 -84 -268
-173 -501 -211 -187 -31 -497 -39 -609 -16 -106 22 -256 72 -444 148 -10 5
-12 -1 -7 -23 12 -60 15 -161 6 -193 -14 -51 -46 -78 -117 -102 -76 -25 -76
-21 -9 -163 49 -104 72 -178 79 -254 5 -50 2 -56 -34 -103 -48 -60 -183 -191
-231 -224 -51 -35 -142 -58 -228 -58 -74 0 -252 26 -299 44 -36 14 -37 4 -3
-39 90 -113 195 -312 245 -463 30 -92 51 -179 43 -179 -2 0 -36 53 -75 118
-40 64 -90 144 -112 177 -21 33 -42 67 -46 75 -4 8 -11 20 -15 25 -23 28 -128
187 -128 195 0 4 -3 10 -8 12 -4 2 -34 41 -66 88 -55 79 -158 220 -181 247 -5
7 -16 19 -22 27 -22 26 -15 26 58 -4 303 -126 655 -47 805 180 l26 39 -32 83
c-17 46 -38 97 -45 113 -7 17 -39 98 -70 180 -31 83 -77 193 -102 245 -43 92
-49 100 -212 260 -149 147 -214 220 -195 220 6 0 24 -12 128 -83 49 -34 152
-123 185 -161 14 -16 31 -34 36 -40 6 -6 46 -56 90 -111 43 -55 112 -135 153
-177 l74 -77 32 16 c18 8 38 28 45 44 12 27 9 36 -58 163 -39 74 -100 195
-134 268 l-63 133 190 -95 c296 -148 472 -221 571 -235 11 -2 43 -8 70 -13 49
-10 406 -9 455 1 14 3 48 8 75 11 90 10 130 16 160 21 46 7 193 18 263 19 40
0 62 5 62 12 0 30 -117 277 -193 409 -70 122 -246 381 -304 450 -5 6 -33 42
-63 80 -30 39 -88 113 -130 166 -41 52 -86 110 -100 129 -14 19 -36 48 -50 64
-14 17 -39 49 -55 71 -16 22 -37 49 -47 59 -23 25 -23 42 0 25 28 -22 125
-103 142 -119 261 -248 410 -367 510 -406 25 -9 50 -20 55 -24 35 -26 403
-133 620 -180 50 -11 98 -22 108 -25 9 -2 17 0 17 6 0 17 -83 183 -154 304
-38 66 -80 140 -93 163 -14 24 -38 65 -54 90 -15 26 -35 58 -43 72 -8 14 -54
84 -103 156 -118 173 -143 214 -117 194 29 -24 156 -132 179 -154 57 -52 99
-72 286 -137 279 -96 425 -130 569 -134 65 -1 130 9 130 21 0 9 -110 190 -171
279 -80 118 -277 357 -399 485 -66 69 -219 250 -211 250 5 0 26 -9 45 -21 20
-12 36 -16 36 -10 0 6 -3 11 -7 11 -14 1 -239 211 -634 594 -171 166 -381 364
-495 467 -337 305 -737 576 -979 664 -27 10 -56 23 -63 28 -22 17 -27 4 -67
-178 -2 -11 -25 -110 -50 -220 -26 -110 -50 -218 -55 -240 -5 -22 -27 -121
-50 -220 -23 -99 -44 -189 -46 -200 -2 -11 -6 -32 -10 -47 -3 -15 -6 -31 -6
-35 0 -5 -4 -18 -9 -29 -4 -12 -11 -41 -14 -65 -4 -24 -8 -46 -10 -50 -2 -3
-14 -48 -25 -100 -12 -52 -23 -101 -25 -109 -4 -17 -34 -148 -45 -200 -4 -19
-24 -107 -45 -195 -20 -88 -39 -171 -41 -185 -3 -14 -14 -61 -24 -105 -45
-186 -142 -637 -155 -715 -3 -19 -8 -42 -10 -50 -2 -8 -7 -31 -10 -50 -3 -19
-8 -42 -10 -50 -3 -12 -40 -206 -71 -370 -2 -14 -6 -35 -9 -47 -5 -19 -58
-293 -71 -363 -3 -14 -7 -33 -10 -42 -3 -10 -8 -30 -10 -45 -3 -16 -14 -68
-26 -118 -11 -49 -24 -110 -29 -134 -5 -23 -14 -62 -20 -84 -6 -23 -12 -49
-14 -57 -19 -95 -106 -372 -116 -368 -3 2 -51 56 -106 120 l-101 117 19 63
c26 82 71 260 108 428 32 145 34 153 51 245 6 33 32 161 56 285 24 124 47 237
49 253 3 15 7 39 10 55 9 55 76 345 120 523 25 101 47 193 49 204 4 18 42 184
52 228 22 93 66 283 70 307 3 14 7 33 10 42 3 10 7 28 10 40 2 13 29 127 59
253 31 127 57 237 59 245 4 14 94 363 132 510 8 30 17 69 20 85 3 17 11 55 19
85 7 30 19 82 24 115 6 33 13 71 16 85 6 32 23 126 29 165 3 17 10 59 16 95
23 143 24 194 3 241 -34 75 -182 210 -318 287 -55 31 -236 118 -265 127 -227
70 -262 77 -378 80 -195 5 -288 -41 -396 -195 -121 -174 -451 -686 -496 -769
-7 -14 -17 -30 -22 -35 -9 -11 -168 -277 -168 -281 0 -2 -30 -51 -66 -110 -36
-59 -68 -115 -71 -124 -4 -9 -14 -27 -23 -41 -17 -24 -26 -39 -92 -155 -16
-27 -33 -57 -38 -65 -5 -8 -55 -94 -111 -190 -56 -96 -129 -221 -163 -278 -33
-56 -69 -116 -78 -132 -81 -138 -256 -420 -374 -605 -64 -99 -117 -181 -119
-183 -2 -2 -47 24 -100 58 -339 213 -909 514 -1235 652 -25 11 -58 26 -75 34
-16 8 -71 31 -121 52 l-91 37 59 90 c72 111 179 325 212 425 40 123 55 224 51
345 -4 109 -5 124 -26 240 -34 197 -167 455 -300 580 -76 72 -187 159 -208
162 -45 6 -61 17 -95 67 -71 103 -74 105 -136 100 -172 -14 -356 -161 -461
-367 -57 -112 -121 -163 -234 -188 -33 -7 -62 -13 -65 -14 -83 -20 -71 -18
-310 -31 -187 -10 -249 -8 -335 10 -11 2 -42 7 -70 10 -27 4 -61 9 -75 11 -26
5 -73 11 -150 21 -25 3 -51 7 -58 10 -31 10 -154 19 -259 19 -62 0 -113 3
-113 7 0 16 78 58 135 73 59 15 218 21 300 10 22 -2 78 -10 125 -16 47 -6 101
-13 120 -15 19 -3 49 -7 65 -9 192 -25 584 -25 624 -1 4 3 24 7 46 10 60 10
187 44 195 53 4 4 17 35 30 68 13 33 27 64 32 70 4 5 8 15 8 23 0 9 -11 5 -32
-12 -32 -24 -98 -39 -124 -29 -11 4 -25 47 -29 88 -3 31 20 93 46 127 32 40
31 41 -21 52 -14 2 -54 12 -90 21 -36 9 -121 18 -190 20 -69 2 -163 6 -210 9
l-85 5 -29 -52 c-37 -67 -73 -105 -115 -123 -37 -16 -121 -19 -121 -5 0 5 31
42 68 82 38 41 74 84 80 96 13 24 15 64 6 110 l-6 29 -59 -8 c-100 -13 -103
-16 -99 -121 5 -148 -205 -282 -380 -242 -108 24 -229 124 -285 235 -77 154
-80 307 -8 479 l26 64 -34 28 c-76 63 -246 148 -327 165 -148 30 -307 75 -341
97 -20 12 -81 56 -136 97 -254 192 -360 251 -542 301 -136 37 -350 32 -493
-12 -126 -39 -354 -143 -545 -250 -33 -19 -86 -47 -118 -63 -45 -22 -66 -41
-91 -80 -38 -57 -94 -113 -146 -144 -43 -25 -130 -63 -130 -56 0 7 83 87 186
181 58 52 113 114 153 172 54 79 71 96 131 131 152 89 387 189 545 231 215 59
417 72 569 39 49 -11 94 -24 100 -28 6 -5 27 -15 46 -22 49 -19 222 -137 303
-207 142 -122 177 -149 224 -172 26 -12 56 -27 66 -32 33 -18 283 -110 364
-135 l43 -13 -76 109 c-42 61 -70 110 -62 110 32 0 164 -43 221 -71 111 -57
193 -129 317 -279 90 -110 251 -262 348 -328 103 -70 90 -70 189 -4 l52 34 66
-23 c45 -15 64 -27 61 -36 -3 -7 -24 -40 -46 -73 l-40 -59 37 -10 c61 -16 146
-28 188 -25 231 15 248 14 365 -12 63 -14 123 -30 132 -35 19 -10 21 -8 111
130 49 75 86 98 189 115 85 14 83 11 41 132 -20 61 -25 95 -28 220 -2 82 -7
165 -10 184 -12 59 -54 161 -89 214 -33 49 -135 156 -186 194 -56 41 -212 133
-325 191 -16 8 -60 34 -96 57 -36 24 -119 70 -185 103 -193 97 -231 115 -791
352 -93 39 -247 109 -343 156 -168 82 -282 136 -400 190 -30 14 -77 35 -105
48 -175 82 -248 115 -252 115 -11 0 -338 168 -413 212 -354 210 -563 420 -764
769 -11 19 -20 36 -21 39 -1 3 -29 61 -62 130 -75 155 -164 389 -162 427 4 61
-11 70 -52 29z m2905 -3051 c166 -18 236 -81 398 -352 106 -176 207 -361 208
-376 0 -4 -26 19 -57 52 -32 33 -193 197 -358 366 -165 169 -301 311 -303 315
-2 5 9 7 25 5 15 -1 54 -6 87 -10z m-384 -1776 c137 -62 494 -242 548 -276 29
-18 54 -33 56 -33 3 0 95 -54 206 -120 111 -66 206 -120 211 -120 5 0 9 -4 9
-10 0 -5 4 -10 10 -10 5 0 32 -14 60 -31 28 -17 87 -46 132 -65 l82 -34 -40
42 c-107 114 -161 149 -469 308 -157 81 -261 135 -458 239 -84 44 -176 102
-211 132 -5 4 11 2 35 -5 159 -48 290 -91 329 -106 25 -10 99 -40 165 -65 66
-26 244 -103 395 -173 l275 -125 125 -126 c69 -69 139 -142 156 -161 16 -20
56 -51 89 -69 134 -75 204 -146 290 -295 26 -44 27 -49 10 -42 -39 16 -272 95
-415 141 -80 25 -167 60 -195 77 -57 36 -155 99 -170 111 -83 64 -230 169
-267 190 -38 22 -49 25 -60 14 -41 -39 -129 -107 -166 -129 -42 -24 -45 -25
-106 -12 -35 7 -74 15 -87 18 -115 21 -118 23 -69 45 44 19 243 153 274 184
l26 26 -61 51 c-33 28 -77 59 -97 70 -20 12 -55 31 -77 43 -22 13 -71 40 -110
61 -38 22 -93 54 -122 72 -76 49 -133 76 -268 128 -66 26 -140 59 -165 73 -42
25 -90 66 -90 77 0 3 33 -9 73 -28 39 -18 106 -48 147 -67z m-3341 -181 c-39
-73 -167 -207 -344 -359 -129 -111 -241 -220 -279 -271 -15 -20 -39 -39 -54
-43 -15 -4 -34 -9 -42 -11 -8 -2 -40 -10 -70 -18 -30 -8 -55 -14 -57 -12 -2 1
21 39 50 84 28 45 81 127 117 183 113 177 268 325 419 399 67 33 186 68 239
69 31 1 32 0 21 -21z m4610 -20762 c-3 -3 -11 5 -18 17 -13 21 -12 21 5 5 10
-10 16 -20 13 -22z"/>
<path d="M17919 29428 c-35 -49 -58 -137 -53 -205 9 -127 83 -225 199 -263 58
-19 167 -15 220 9 49 22 90 76 100 131 5 33 3 37 -37 62 -39 25 -44 26 -53 11
-83 -139 -232 -25 -218 168 l4 56 -70 31 -71 31 -21 -31z"/>
<path d="M9546 29373 c15 -27 39 -68 54 -93 33 -53 494 -834 688 -1165 75
-126 141 -237 149 -246 12 -14 22 -15 106 -2 230 35 472 111 682 214 136 67
268 148 245 150 -8 1 -19 2 -25 3 -5 1 -35 5 -65 10 -149 22 -366 85 -551 161
-408 167 -823 461 -1124 796 -99 110 -111 125 -145 172 -18 26 -35 47 -37 47
-2 0 8 -21 23 -47z"/>
<path d="M23635 29313 c-127 -154 -369 -373 -559 -509 -320 -227 -764 -431
-1106 -510 -80 -18 -172 -36 -205 -41 -22 -3 -55 -8 -74 -12 l-35 -7 50 -31
c238 -149 554 -273 799 -313 99 -16 108 -18 150 -23 l40 -6 51 77 c28 42 135
205 239 362 220 336 409 623 580 883 68 103 122 187 121 187 -2 0 -25 -26 -51
-57z"/>
<path d="M19664 29301 c-94 -42 -223 -227 -259 -369 -21 -83 -28 -129 -17
-117 5 6 41 49 81 96 39 48 86 98 104 112 81 62 214 105 340 110 31 1 57 7 58
12 0 21 -35 85 -48 86 -7 1 -17 3 -23 4 -5 1 -19 3 -30 4 -11 0 -20 7 -20 15
0 21 -65 57 -109 61 -22 2 -56 -5 -77 -14z"/>
<path d="M12995 28559 c-17 -10 -64 -37 -105 -61 -41 -23 -88 -51 -105 -61
-59 -35 -557 -277 -571 -277 -3 0 -24 -9 -47 -19 -77 -35 -270 -112 -522 -207
-630 -239 -784 -309 -882 -401 -59 -56 -79 -103 -74 -174 1 -19 45 -85 86
-131 99 -108 205 -259 372 -530 21 -35 25 -37 67 -33 24 3 93 22 152 43 187
67 363 148 1039 477 121 59 247 120 280 135 33 15 103 48 155 73 137 65 283
126 375 157 62 20 83 33 93 52 27 56 33 229 18 538 -10 200 -10 176 -2 231 l6
45 -72 17 c-40 10 -83 19 -95 22 -29 5 -60 29 -103 80 l-36 41 -29 -17z"/>
<path d="M21083 27928 c-78 -56 -111 -149 -128 -353 -4 -44 -8 -91 -10 -105
-3 -14 -7 -43 -10 -65 -3 -22 -20 -69 -38 -105 -35 -69 -80 -109 -151 -130
l-39 -12 169 -87 c93 -48 241 -125 329 -171 312 -163 461 -241 584 -302 l124
-61 21 25 c12 14 28 35 36 48 13 19 53 74 78 105 11 15 205 286 222 311 8 13
52 77 97 143 105 152 163 247 163 265 0 14 -32 25 -480 168 -198 63 -569 186
-595 197 -11 5 -47 19 -80 31 -33 12 -84 33 -113 46 -29 13 -55 24 -57 24 -3
0 -23 11 -45 25 -22 14 -41 25 -42 25 -2 0 -18 -10 -35 -22z"/>
<path d="M18483 6918 c-33 -46 -95 -138 -138 -204 -71 -107 -86 -124 -130
-146 -57 -29 -206 -137 -242 -176 -13 -14 -42 -61 -64 -103 -35 -67 -45 -78
-87 -97 -67 -31 -111 -39 -157 -31 -37 7 -109 17 -162 24 -13 1 -23 -1 -23 -4
0 -9 -157 -169 -191 -196 -111 -86 -177 -75 -339 60 -86 72 -95 77 -119 67
-14 -5 -53 -22 -86 -36 -67 -29 -132 -33 -174 -12 -33 18 -91 81 -91 100 0 18
-49 59 -86 73 -16 6 -69 25 -119 43 -99 36 -180 83 -238 139 -52 49 -121 146
-147 207 -18 41 -23 46 -31 31 -22 -38 -72 -266 -113 -507 -3 -19 -8 -44 -10
-55 -5 -30 -25 -154 -31 -200 -3 -22 -7 -51 -10 -65 -2 -14 -7 -45 -10 -70 -3
-25 -7 -58 -9 -75 -8 -50 -14 -97 -21 -160 -4 -33 -9 -69 -11 -80 -2 -11 -9
-65 -15 -120 -5 -55 -12 -113 -14 -130 -3 -27 -7 -58 -20 -175 -2 -19 -7 -66
-10 -104 -3 -37 -7 -82 -10 -100 -4 -30 -7 -62 -20 -241 -3 -44 -8 -93 -10
-110 -6 -48 -18 -331 -18 -440 -1 -149 8 -262 38 -485 12 -86 67 -346 101
-480 100 -390 253 -808 410 -1125 96 -194 108 -214 129 -200 7 6 46 32 85 59
39 27 72 51 74 55 2 3 7 141 11 306 7 331 10 428 20 680 3 94 8 217 10 275 6
152 15 366 20 435 2 33 7 123 10 200 4 77 8 160 10 185 2 25 6 90 10 145 3 55
8 127 11 160 2 33 6 89 9 125 9 130 22 284 30 365 6 61 15 144 20 200 3 28 7
66 10 85 2 19 7 55 10 80 6 47 32 217 40 260 13 71 17 85 24 98 5 8 8 -565 7
-1274 -1 -1095 4 -1511 19 -1739 1 -22 5 -85 9 -140 7 -115 14 -201 21 -265 3
-25 7 -72 10 -105 7 -91 15 -167 20 -195 2 -14 7 -45 10 -70 3 -25 8 -56 10
-70 3 -14 7 -41 10 -60 4 -35 19 -118 30 -175 63 -311 131 -500 296 -824 49
-96 93 -179 98 -185 5 -6 23 -38 41 -71 18 -33 63 -107 100 -164 l68 -104 26
42 c30 47 130 248 165 331 13 30 31 73 41 95 31 70 127 336 160 444 32 105 84
329 95 411 3 25 10 70 15 100 5 30 12 80 15 110 3 30 8 71 10 90 4 33 14 154
20 250 23 331 23 1635 0 2020 -1 30 -6 123 -10 205 -4 83 -8 173 -10 200 -9
126 -15 228 -20 325 -3 58 -8 134 -10 170 -4 70 -13 256 -20 410 -2 52 -6 169
-9 260 l-5 165 20 -70 c10 -38 22 -86 25 -105 3 -19 8 -38 10 -41 2 -3 6 -21
9 -40 3 -19 10 -56 15 -84 6 -27 12 -63 14 -80 2 -16 16 -97 30 -180 13 -82
30 -188 36 -235 7 -47 14 -98 16 -115 4 -31 30 -244 39 -325 3 -25 7 -61 10
-80 2 -19 7 -62 10 -95 3 -33 8 -71 10 -85 2 -14 6 -61 10 -104 4 -43 8 -86
10 -95 1 -9 6 -56 10 -104 3 -48 8 -96 10 -106 2 -10 6 -58 10 -107 8 -119 13
-177 20 -254 9 -102 14 -159 20 -245 3 -44 8 -102 10 -130 2 -27 7 -90 10
-140 3 -49 8 -117 10 -150 9 -133 15 -225 21 -325 3 -58 7 -127 9 -155 2 -27
4 -70 4 -95 l2 -45 85 -49 c99 -56 88 -61 153 70 40 82 63 135 108 254 154
412 322 1087 378 1520 2 14 6 45 10 70 16 116 29 304 29 435 -1 118 -12 337
-19 377 -3 11 -7 50 -10 86 -3 35 -7 76 -9 91 -2 14 -7 53 -11 86 -7 67 -13
114 -21 165 -3 19 -7 50 -9 68 -2 18 -9 69 -16 115 -6 45 -13 89 -14 97 -1 8
-5 35 -9 60 -4 25 -9 56 -11 70 -6 37 -64 391 -70 420 -2 14 -7 36 -10 50 -2
14 -7 39 -10 55 -2 17 -13 75 -24 130 -11 55 -22 111 -25 125 -11 63 -70 322
-88 390 -11 41 -21 82 -23 90 -7 33 -56 180 -60 180 -2 0 -30 -37 -62 -82z"/>
</g>
</svg>
